<svg xmlns="http://www.w3.org/2000/svg" viewBox="0 0 721.61 116.87"><defs><style>.cls-1{fill:#3a9fcd;}.cls-2{fill:#8f9293;}</style></defs><title>Recurso 1</title><g id="Capa_2" data-name="Capa 2"><g id="Capa_1-2" data-name="Capa 1"><path class="cls-1" d="M211.42,54.23C223.23,42.76,227,29.37,221.48,16.65c-6-14-18-16.69-31.71-16.65C128.81.15,67.85,0,6.89.08,4.62.08,2.35.3,0,.42,3.94,16.88,17.44,26.91,35.8,27c30.23.15,60.43.08,90.67.08h9.15c-6.24,30.42-12.22,59.52-18.43,89.72,20.48,0,40,.3,59.42-.19a50.74,50.74,0,0,0,17.74-4c23.39-9.65,32.09-40.91,15.1-56A24.86,24.86,0,0,1,211.42,54.23ZM178.12,91.5c-8.4.64-16.88.15-25.77.15.23-2.5.23-3.29.38-4.05,5.18-22.7-.87-18.27,24.22-18.73,5.86-.11,10.63,1.44,11.27,8.48C188.79,84.2,184.59,91,178.12,91.5ZM181.94,48c-6.47,1-13.17.19-20.51.19,1.33-6.66,2.46-12.33,3.63-18,.12-.49.31-1.44.5-1.44,7.45-.64,14.9-1.74,22.32-1.36,1.78.08,4.66,5,4.69,7.65C192.65,41.74,188.71,47,181.94,48Z"/><path class="cls-1" d="M122.76,38.37c-3.11,17.94-3.11,17.94-21.38,17.94-12,0-24.07.3-36.07-.15-13.28-.5-24-6-31.71-19h88.93A5,5,0,0,1,122.76,38.37Z"/><path class="cls-1" d="M116.25,66.37c-5,21.35.41,17.83-21.8,17.49C79,83.59,68.3,76.74,62.63,64.75h53.16C116,65.43,116.32,66,116.25,66.37Z"/><path class="cls-2" d="M277.42,31.3V95.09h-9.53V31.3H250.81V21.82H294.5V31.3Z"/><path class="cls-2" d="M321.79,71.65h-8.65V95.09h-9.48V21.82h20.79a25.37,25.37,0,0,1,14.92,7.28,24.06,24.06,0,0,1,7.29,17.59,24.17,24.17,0,0,1-7.29,17.68c-3.35,3.35-5.92,5.25-7.69,5.67l16.26,25h-11.5Zm-8.65-40.3V62.12h8.65a15.4,15.4,0,0,0,15.34-15.43,15.36,15.36,0,0,0-15.34-15.34Z"/><path class="cls-2" d="M384.48,21.82l26.65,73.27H401.06l-9.44-25.92H372.21l-9.39,25.92H352.7l26.65-73.27Zm3.71,37.87-6.27-17.17-6.23,17.17Z"/><path class="cls-2" d="M420.29,21.82h8.65l30.23,52.3V21.82h9.52V95.09H460.4L429.77,42.16V95.09h-9.48Z"/><path class="cls-2" d="M501.07,57.5a31.8,31.8,0,0,1-12.62-7.44,16.29,16.29,0,0,1-4.83-12,16.45,16.45,0,0,1,5-12A17.15,17.15,0,0,1,512.88,26c1.9,1.83,3.48,4.75,4.77,8.75L509,38.13q-1.56-4.22-2.84-5.5a7.78,7.78,0,0,0-10.86,0,7.73,7.73,0,0,0,0,10.88,24.57,24.57,0,0,0,7,4.53,36.15,36.15,0,0,1,14.6,8.8A21.77,21.77,0,0,1,523.64,73a22.83,22.83,0,0,1-39,16.17q-5.36-5.36-6.78-14.79L487.06,71q.87,8.1,4.26,11.49A13.42,13.42,0,0,0,514.21,73a12.88,12.88,0,0,0-3.94-9.47A27.58,27.58,0,0,0,501.07,57.5Z"/><path class="cls-2" d="M580.11,21.82a15.45,15.45,0,0,1,15.43,15.39q0,6.56-6.6,8.11,4.77.68,10.83,6.77t6.07,16.85a25.9,25.9,0,0,1-7.55,18.6Q591.18,94.91,584,95v.09H565.27V21.82Zm-5.36,9.48V42.89h6.18a5.92,5.92,0,0,0,3.62-1.6,5.27,5.27,0,0,0,1.65-4.08A5.7,5.7,0,0,0,584.48,33a6,6,0,0,0-4.37-1.67Zm0,21.34V85.57H584v-.14q2.94-.18,7.28-4.72a16.28,16.28,0,0,0,4.81-11.77,16.34,16.34,0,0,0-16.3-16.3Z"/><path class="cls-2" d="M657.13,21.82h9.52V73.43a25.63,25.63,0,0,1-7.28,14.93,24.92,24.92,0,0,1-42.54-17.58v-49h9.53v49a15.39,15.39,0,0,0,30.77,0Z"/><path class="cls-2" d="M699,57.5a31.8,31.8,0,0,1-12.62-7.44,16.29,16.29,0,0,1-4.83-12,16.45,16.45,0,0,1,5-12A17.15,17.15,0,0,1,710.84,26c1.9,1.83,3.48,4.75,4.77,8.75L707,38.13q-1.56-4.22-2.84-5.5a7.76,7.76,0,0,0-10.85,0,7.7,7.7,0,0,0,0,10.88,24.36,24.36,0,0,0,7,4.53,36.08,36.08,0,0,1,14.6,8.8A21.78,21.78,0,0,1,721.61,73a22.83,22.83,0,0,1-39,16.17q-5.36-5.36-6.78-14.79L685,71q.87,8.1,4.26,11.49A13.42,13.42,0,0,0,712.17,73a12.88,12.88,0,0,0-3.94-9.47A27.58,27.58,0,0,0,699,57.5Z"/></g></g></svg>