<svg xmlns="http://www.w3.org/2000/svg" viewBox="0 0 478.9 134.78"><defs><style>.cls-1{fill:#263238;}.cls-2{fill:#d0d8dc;}.cls-3{fill:#fff;}.cls-4{fill:#3a9fcd;}</style></defs><title>Recurso 18</title><g id="Capa_2" data-name="Capa 2"><g id="Capa_2-2" data-name="Capa 2"><rect class="cls-1" y="40.68" width="478.9" height="54.67" rx="19.96"/><rect class="cls-1" x="155.56" width="223.22" height="134.78" rx="26.67"/><path class="cls-2" d="M366.24,105.11a84.13,84.13,0,0,0-11.8-42C339.41,38.24,313,26.49,286,19.11,278.51,17,270.88,15.35,263.21,14c-9-1.62-18.08-2.49-27.14-3.54a191.88,191.88,0,0,1,27.11,11.63,121.78,121.78,0,0,1,19,11.46A49.9,49.9,0,0,1,298.39,55.8c3.09,8.84,1.07,18-3.2,26.12-4.47,8.45-10.91,15.7-17.28,22.76-5.55,6.15-11,12.38-16.6,18.52-.13.15-.82,1.14-1,1.14H316s5.14-15.71,5.14-21.71h21.43s1.28,5.29-2.15,21.71h24C365.91,124.34,366.26,106.29,366.24,105.11Zm-104.82-87c-.28-1.14-5.14-3.14-5.14-3.14h1.14c2.72.14,10,3.14,10,3.14Zm26.43,11.71c-.71-2-9.43-6.57-9.43-6.57H284c3.57.72,11.42,6.57,11.42,6.57Zm10.57,6.43h8.15c2.85.86,11.85,10,11.85,10H306.57C306.42,43.49,298.42,36.2,298.42,36.2Zm14,16.14h11.86c4,4.43,10.29,16.72,10.29,16.72H319.28C319.28,65.2,312.42,52.34,312.42,52.34ZM322,97.06c1.3-9.67-1.43-22.29-1.43-22.29h16.71c4.57,9,5,22.29,5,22.29Z"/><path class="cls-2" d="M268.47,108.08c6.25-7.3,12.31-14.78,18.45-22.16H246.28c-1.43,4.85-4.57,5.42-4.57,5.42l-17.14-.28C224,65.63,226,24.77,226,24.77c3.71-9.14,21.14-3.71,21.14-3.71-17.43-8.86-30.29-8.86-30.29-8.86-10.39-.69-34.22,2.54-43,3.8a4,4,0,0,0-3.39,3.82l-2.38,91.77a4,4,0,0,0,3.94,4.07l33.1.26c1.43,6.57,8.86,6.57,8.86,6.57,8.57,0,9.71-7.43,9.71-7.43h32.57c-.33,0,.52-8.83.67-9.64.5-2.76,1.23-9.15,5.12-9C266.48,96.59,270,104.42,268.47,108.08ZM174.28,26.35a3.31,3.31,0,0,1,3.15-3.3l39.11-1.83a3.3,3.3,0,0,1,3.46,3.3V38a3.3,3.3,0,0,1-3.21,3.3l-39.12,1.1a3.3,3.3,0,0,1-3.39-3.3Zm0,22.49a2.65,2.65,0,0,1,2.64-2.64h33.29a2.64,2.64,0,0,1,2.64,2.64V52.7a2.64,2.64,0,0,1-2.64,2.64H176.92a2.64,2.64,0,0,1-2.64-2.64Zm6.07,55.5H170.5v-3.42h9.85Zm37.43,0h-9.86v-3.42h9.86Zm3.36-14.42a1.72,1.72,0,0,1-1.72,1.71H174.57a1.72,1.72,0,0,1-1.72-1.71V65.06a1.72,1.72,0,0,1,1.72-1.72h44.85a1.72,1.72,0,0,1,1.72,1.72Z"/><path class="cls-2" d="M272.42,44.2s-20.71-.86-20.71,19.14h41.43S293.42,44.2,272.42,44.2Z"/><path class="cls-3" d="M392.24,50.41a7.05,7.05,0,0,1,7,7,3.49,3.49,0,0,1-3,3.7c1.45.21,3.09,1.24,4.94,3.09A10.4,10.4,0,0,1,404,71.88a11.78,11.78,0,0,1-3.44,8.47c-2.16,2.24-4.32,3.38-6.49,3.4v0h-8.55V50.41Zm-2.45,4.32V60h2.82a2.66,2.66,0,0,0,1.65-.73,2.4,2.4,0,0,0,.75-1.86,2.6,2.6,0,0,0-.78-1.93,2.77,2.77,0,0,0-2-.76Zm0,9.73v15H394v-.07c.89,0,2-.77,3.32-2.15a7.41,7.41,0,0,0,2.19-5.36,7.44,7.44,0,0,0-7.43-7.42Z"/><path class="cls-3" d="M429.46,50.41h4.34V73.93a11.69,11.69,0,0,1-3.31,6.8,11.36,11.36,0,0,1-19.39-8V50.41h4.34V72.72a7,7,0,0,0,14,0Z"/><path class="cls-3" d="M450.69,66.67a14.64,14.64,0,0,1-5.75-3.39,7.41,7.41,0,0,1-2.2-5.46,7.82,7.82,0,0,1,13.33-5.51,9.63,9.63,0,0,1,2.17,4l-3.92,1.54a7.52,7.52,0,0,0-1.29-2.5,3.41,3.41,0,0,0-2.47-1,3.49,3.49,0,0,0-2.48,6,11.22,11.22,0,0,0,3.17,2.07,16.47,16.47,0,0,1,6.66,4A10.4,10.4,0,1,1,443.2,81.08a11.63,11.63,0,0,1-3.09-6.74l4.19-1.52q.4,3.69,1.95,5.24a6.11,6.11,0,1,0,8.63-8.66A12.67,12.67,0,0,0,450.69,66.67Z"/><path class="cls-4" d="M30,54.73V83.79H25.71V54.73H17.92V50.41H37.83v4.32Z"/><path class="cls-4" d="M52.4,73.11H48.46V83.79H44.14V50.41h9.47a11.58,11.58,0,0,1,6.8,3.32,11.38,11.38,0,0,1,0,16.07q-2.29,2.3-3.51,2.58l7.41,11.41H59.07ZM48.46,54.75v14H52.4a6.71,6.71,0,0,0,4.93-2,6.79,6.79,0,0,0,2.06-5,7,7,0,0,0-7-7Z"/><path class="cls-4" d="M83.1,50.41,95.24,83.79H90.65L86.35,72H77.5l-4.27,11.8H68.62L80.76,50.41Zm1.69,17.26-2.86-7.83-2.84,7.83Z"/><path class="cls-4" d="M101.55,50.41h3.94l13.77,23.83V50.41h4.34V83.79h-3.78L105.87,59.68V83.79h-4.32Z"/><path class="cls-4" d="M140.49,66.67a14.64,14.64,0,0,1-5.75-3.39,7.41,7.41,0,0,1-2.2-5.46,7.82,7.82,0,0,1,13.33-5.51,9.74,9.74,0,0,1,2.17,4l-3.92,1.54a7.68,7.68,0,0,0-1.3-2.5,3.5,3.5,0,0,0-4.94,5,11.29,11.29,0,0,0,3.17,2.07,16.44,16.44,0,0,1,6.65,4A10.4,10.4,0,1,1,133,81.08a11.66,11.66,0,0,1-3.09-6.74l4.19-1.52c.27,2.46.91,4.21,1.94,5.24a6.12,6.12,0,0,0,8.64-8.66A12.67,12.67,0,0,0,140.49,66.67Z"/></g></g></svg>